# xmcd
#
# Track frame offsets: 
#        150
#        15087
#        28697
#        43150
#        53750
#        67672
#        81742
#        94022
#        106035
#        119695
#        129125
#        143897
#        158872
#        174112
#        185235
#        198285
#        209785
#        220250
#        233122
#        243462
#
# Disc length: 3433 seconds
#
# Revision: 0
# Processed by: cddbd v1.4PL0 Copyright (c) Steve Scherf et al.
# Submitted via: ExactAudioCopy v0.90b4
#
DISCID=150d6714
DTITLE=George Jones - The Legendary George Jones - Disc 1
DYEAR=1900
DGENRE=Country
TTITLE0=He Stopped Loving Her Today
TTITLE1=I'm Not Ready Yet
TTITLE2=If Drinkin' Don't Kill Me (Her Memory Will)
TTITLE3=Her Name Is...
TTITLE4=Loving You Could Never Be Better
TTITLE5=The Grand Tour
TTITLE6=The Door
TTITLE7=Once You've Had The Best
TTITLE8=These Days (I Barely Get By)
TTITLE9=We Can Make It
TTITLE10=Who's Gonna Fill Their Shoes
TTITLE11=I Always Get Lucky With You
TTITLE12=Shine On (Shine All Your Sweet Love On Me)
TTITLE13=She's My Rock
TTITLE14=Tennessee Whiskey
TTITLE15=A Picture Of Me (Without You)
TTITLE16=Nothing Ever Hurt Me (Half As Bad As Losing You)
TTITLE17=Still Doin' Time
TTITLE18=I'm A One Woman Man
TTITLE19=You've Still Got A Place In My Heart
EXTD=
EXTT0=
EXTT1=
EXTT2=
EXTT3=
EXTT4=
EXTT5=
EXTT6=
EXTT7=
EXTT8=
EXTT9=
EXTT10=
EXTT11=
EXTT12=
EXTT13=
EXTT14=
EXTT15=
EXTT16=
EXTT17=
EXTT18=
EXTT19=
PLAYORDER=
